<svg width="1920" height="700" viewBox="0 0 1920 700" fill="none" xmlns="http://www.w3.org/2000/svg">
<rect width="1920" height="700" rx="20" fill="white"/>
<path d="M1211.65 194.571L1233.75 194.572L1252.08 194.572V336.287H1211.65V194.571Z" fill="#0E1116"/>
<path d="M667 340.857H707.428V487.143H667V340.857Z" fill="#0E1116"/>
<path d="M1252.09 558.941C1252.09 587.714 1234.74 616.376 1205.7 637.493C1174.2 660.386 1138.17 671.186 1097.61 669.897C1060.54 668.719 1029.99 658.61 1003.66 639.908C977.325 621.206 962.023 598.791 953.483 570.734H992.904C998.935 589.759 1012.44 606.121 1033.38 619.83C1054.34 633.536 1077.24 640.391 1102.1 640.391C1131.93 640.068 1157.77 630.638 1179.61 612.092C1196.44 597.798 1206.78 581.351 1210.64 562.75C1211.24 548.588 1211.55 462.562 1211.55 458.278V432.156C1181.72 462.811 1144.43 478.932 1099.67 480.528C1056.24 481.814 1018.79 468.21 987.291 439.739L1014.79 413.333C1014.93 413.454 1015.06 413.582 1015.19 413.707C1038.02 434.391 1065.49 444.732 1097.6 444.732C1128.98 444.732 1155.65 434.391 1177.58 413.707C1199.52 393.026 1210.56 367.196 1211.55 339.046C1212.62 308.659 1200.64 281.536 1177.57 259.536C1153.25 236.343 1125.24 226.244 1091.71 227.537C1060.32 228.837 1033.74 240.393 1011.99 262.204C992.383 281.857 981.895 302.958 980.119 330.025C979.934 332.837 979.858 335.677 979.892 338.558C979.942 340.763 980.06 342.94 980.244 345.098C979.892 367.388 972.753 389.7 960.731 409.022C954.154 419.58 945.95 429.555 936.076 438.926C906.537 466.983 870.598 481.662 828.25 482.947C784.484 484.241 746.405 470.371 714.024 441.348C681.637 412.32 665.986 377.977 667.051 338.309V30H707.621V243.016C737.454 211.739 774.744 195.446 819.492 194.154C863.174 192.55 898.244 204.048 932.703 235.276C933.131 235.664 933.55 236.059 933.978 236.455L905.656 262.121C905.329 261.824 905.011 261.52 904.683 261.224C881.982 240.378 854.365 229.954 821.841 229.954C790.725 229.954 761.611 243.016 741.934 260.98C722.257 278.945 708.339 306.555 707.621 335.641C706.551 366.351 717.987 392.936 741.934 415.401C765.893 437.862 794.492 448.444 827.738 447.151C859.197 445.858 885.825 434.384 907.636 412.729C927.317 393.182 937.971 370.476 939.599 344.611C939.423 341.651 939.322 338.668 939.322 335.65C939.322 333.608 939.372 331.583 939.456 329.57C940.413 306.252 946.864 284.921 958.827 265.595C965.362 255.035 973.533 245.061 983.357 235.687C1012.72 207.679 1048.57 193.029 1090.92 191.736C1134.69 190.771 1172.67 204.722 1204.88 233.581C1237.09 262.448 1252.83 296.712 1252.12 336.373V556.53C1252.12 557.34 1252.11 558.143 1252.09 558.941Z" fill="#0E1116"/>
</svg>
