<svg width="1924" height="564" viewBox="0 0 1924 564" fill="none" xmlns="http://www.w3.org/2000/svg">
<rect x="1" y="1" width="1922" height="562" rx="7" fill="white" stroke="#D0D7DE" stroke-width="2"/>
<rect x="702" y="22" width="520" height="520" rx="30" fill="white"/>
<path d="M1137.14 173.473L1152.57 173.474L1165.37 173.474V272.425H1137.14V173.473Z" fill="#0D1117"/>
<path d="M756.844 275.616H785.072V377.759H756.844V275.616Z" fill="#0D1117"/>
<path d="M1165.38 427.891C1165.38 447.982 1153.26 467.995 1132.99 482.74C1110.99 498.725 1085.83 506.266 1057.51 505.365C1031.63 504.543 1010.3 497.485 991.913 484.426C973.526 471.367 962.841 455.716 956.878 436.126H984.403C988.615 449.41 998.046 460.835 1012.67 470.407C1027.3 479.977 1043.29 484.763 1060.65 484.763C1081.48 484.537 1099.52 477.953 1114.77 465.003C1126.52 455.023 1133.74 443.539 1136.44 430.551C1136.85 420.663 1137.07 360.595 1137.07 357.604V339.365C1116.24 360.77 1090.2 372.025 1058.95 373.14C1028.63 374.038 1002.48 364.539 980.485 344.66L999.686 326.222C999.78 326.306 999.873 326.396 999.967 326.483C1015.91 340.926 1035.08 348.146 1057.51 348.146C1079.42 348.146 1098.04 340.926 1113.35 326.483C1128.67 312.043 1136.38 294.007 1137.07 274.351C1137.82 253.134 1129.46 234.196 1113.35 218.834C1096.37 202.64 1076.81 195.589 1053.39 196.491C1031.48 197.399 1012.92 205.468 997.73 220.697C984.04 234.42 976.717 249.153 975.476 268.053C975.347 270.016 975.295 271.999 975.318 274.011C975.353 275.55 975.435 277.071 975.564 278.577C975.318 294.141 970.333 309.72 961.939 323.211C957.347 330.584 951.618 337.548 944.724 344.092C924.099 363.682 899.005 373.932 869.435 374.829C838.876 375.732 812.288 366.048 789.678 345.783C767.064 325.515 756.135 301.535 756.879 273.837V58.5625H785.207V207.299C806.038 185.46 832.075 174.084 863.32 173.182C893.821 172.062 918.308 180.09 942.369 201.895C942.668 202.166 942.961 202.442 943.259 202.718L923.484 220.639C923.255 220.432 923.033 220.22 922.804 220.013C906.954 205.457 887.67 198.179 864.96 198.179C843.234 198.179 822.905 207.299 809.166 219.843C795.427 232.387 785.708 251.665 785.207 271.974C784.46 293.417 792.445 311.98 809.166 327.666C825.895 343.349 845.864 350.738 869.078 349.835C891.044 348.932 909.636 340.92 924.866 325.8C938.608 312.151 946.048 296.297 947.184 278.237C947.061 276.17 946.991 274.087 946.991 271.98C946.991 270.555 947.026 269.14 947.084 267.735C947.752 251.453 952.257 236.559 960.61 223.065C965.173 215.692 970.878 208.727 977.737 202.182C998.239 182.626 1023.27 172.396 1052.84 171.494C1083.4 170.82 1109.92 180.561 1132.41 200.711C1154.9 220.867 1165.9 244.792 1165.4 272.485V426.208C1165.4 426.773 1165.39 427.334 1165.38 427.891Z" fill="#0D1117"/>
</svg>
