<svg width="1924" height="564" viewBox="0 0 1924 564" fill="none" xmlns="http://www.w3.org/2000/svg">
<rect x="1" y="1" width="1922" height="562" rx="7" fill="white" stroke="#D0D7DE" stroke-width="2"/>
<path d="M1158.51 160.071L1158.01 160.071V160.571V271.286V271.786H1158.51H1190.09H1190.59V271.286V160.572V160.072L1190.09 160.072L1175.77 160.072L1158.51 160.071Z" fill="#0D1117" stroke="#D0D7DE"/>
<path d="M733 274.357H732.5V274.857V389.143V389.643H733H764.584H765.084V389.143V274.857V274.357H764.584H733Z" fill="#0D1117" stroke="#D0D7DE"/>
<path d="M1072.92 508.368C1053.6 508.367 1035.8 503.041 1019.51 492.387C1003.22 481.723 992.758 469.025 988.089 454.297L987.978 453.948H987.612H956.815H956.14L956.337 454.594C963.04 476.617 975.06 494.221 995.725 508.898C1016.39 523.571 1040.35 531.496 1069.4 532.419C1101.19 533.43 1129.45 524.962 1154.16 507.009L1153.86 506.604L1154.16 507.009C1176.92 490.448 1190.6 467.923 1190.61 445.24M1072.92 508.368L1190.11 445.235M1072.92 508.368C1096.11 508.116 1116.18 500.788 1133.15 486.378C1146.22 475.281 1154.23 462.539 1157.22 448.149C1157.69 436.976 1157.93 369.941 1157.93 366.592V347.408M1072.92 508.368L1157.93 347.408M1190.61 445.24C1190.61 445.238 1190.61 445.237 1190.61 445.235H1190.11M1190.61 445.24C1190.61 445.242 1190.6 445.244 1190.6 445.246L1190.11 445.235M1190.61 445.24C1190.62 444.614 1190.62 443.986 1190.62 443.352V271.36M1190.11 445.235C1190.12 444.611 1190.12 443.984 1190.12 443.352V271.354M1190.62 271.36C1190.62 271.361 1190.62 271.362 1190.62 271.363L1190.12 271.354M1190.62 271.36C1191.18 240.217 1178.81 213.314 1153.55 190.675L1153.27 190.994L1153.55 190.675C1128.29 168.043 1098.5 157.1 1064.18 157.857L1064.17 157.857C1030.97 158.87 1002.84 170.361 979.809 192.331L980.116 192.654L979.809 192.331C972.106 199.681 965.694 207.507 960.565 215.796C951.172 230.969 946.108 247.718 945.357 266.018C945.291 267.596 945.252 269.186 945.252 270.789C945.252 273.147 945.33 275.478 945.467 277.789M1190.62 271.36V271.354H1190.12M1190.12 271.354L945.467 277.789M945.467 277.789C945.468 277.779 945.468 277.768 945.469 277.758L945.968 277.79M945.467 277.789L1064.19 158.357C1031.1 159.366 1003.09 170.812 980.154 192.693C972.479 200.016 966.095 207.809 960.99 216.059C951.644 231.157 946.604 247.822 945.857 266.039C945.791 267.612 945.752 269.194 945.752 270.789C945.752 273.147 945.83 275.477 945.968 277.79M945.467 277.789C944.197 297.852 935.933 315.468 920.645 330.653C903.696 347.479 883.013 356.394 858.557 357.399M945.467 277.789C945.468 277.799 945.468 277.809 945.469 277.819L945.968 277.79M945.968 277.79C944.696 297.997 936.373 315.736 920.997 331.007C903.957 347.925 883.154 356.889 858.577 357.899M1157.93 347.408C1134.67 370.886 1105.7 383.238 1071.04 384.475L1071.04 384.475C1036.98 385.483 1007.6 374.811 982.892 352.48L982.494 352.12L982.881 351.748L1004.37 331.118L1004.7 330.796L1005.05 331.107C1005.11 331.161 1005.17 331.217 1005.23 331.273C1005.27 331.318 1005.32 331.362 1005.36 331.402C1023.1 347.474 1044.44 355.51 1069.41 355.51C1093.8 355.51 1114.51 347.476 1131.55 331.408L1131.89 331.771L1131.55 331.407C1148.59 315.342 1157.16 295.288 1157.93 273.424C1158.76 249.842 1149.47 228.786 1131.54 211.687C1112.64 193.664 1090.89 185.821 1064.82 186.825C1040.42 187.836 1019.78 196.814 1002.88 213.763C987.635 229.041 979.502 245.415 978.123 266.427C977.98 268.61 977.921 270.815 977.947 273.052C977.986 274.763 978.077 276.453 978.22 278.128L978.223 278.153L978.222 278.178C977.945 295.692 972.337 313.211 962.902 328.375L962.902 328.375C957.739 336.663 951.302 344.488 943.559 351.836C920.39 373.844 892.194 385.357 858.992 386.365H858.991C824.672 387.379 794.798 376.499 769.404 353.738C744.006 330.974 731.705 304.009 732.54 272.86V32V31.5H733.04H764.735H765.235V32V197.178C788.491 173.229 817.462 160.747 852.117 159.746M1157.93 347.408L918.69 212.644C900.955 196.357 879.379 188.214 853.969 188.214C829.66 188.214 806.915 198.418 791.542 212.453C776.17 226.488 765.296 248.059 764.735 270.782C763.899 294.774 772.834 315.544 791.542 333.094M852.117 159.746C852.117 159.746 852.116 159.746 852.116 159.746L852.134 160.245L852.12 159.746C852.119 159.746 852.118 159.746 852.117 159.746ZM852.117 159.746C886.367 158.488 913.894 167.513 940.916 192.002C941.141 192.205 941.365 192.413 941.587 192.62C941.697 192.722 941.807 192.824 941.916 192.925L942.317 193.296L941.913 193.663L919.786 213.715L919.45 214.019L919.115 213.715C918.984 213.597 918.856 213.477 918.73 213.36C918.603 213.242 918.479 213.127 918.354 213.014L918.352 213.012C900.715 196.815 879.262 188.714 853.969 188.714C829.795 188.714 807.168 198.865 791.879 212.823C776.6 226.772 765.792 248.217 765.235 270.795L765.235 270.8C764.405 294.637 773.273 315.27 791.884 332.73M791.884 332.73C810.503 350.185 832.715 358.405 858.557 357.399M791.884 332.73L791.542 333.094M791.884 332.73C791.884 332.73 791.884 332.73 791.884 332.73L791.542 333.094M858.557 357.399C858.557 357.399 858.557 357.399 858.556 357.399L858.577 357.899M858.557 357.399L858.577 357.899M858.577 357.899C832.603 358.909 810.261 350.642 791.542 333.094" fill="#0D1117" stroke="#D0D7DE"/>
</svg>
