<svg width="1920" height="600" viewBox="0 0 1920 600" fill="none" xmlns="http://www.w3.org/2000/svg">
<rect width="1920" height="600" rx="6" fill="white"/>
<path d="M1177.06 166.429L1196.05 166.429L1211.8 166.429V288.215H1177.06V166.429Z" fill="#0E1117"/>
<path d="M709 292.143H743.743V417.857H709V292.143Z" fill="#0E1117"/>
<path d="M1211.82 479.559C1211.82 504.286 1196.9 528.917 1171.95 547.065C1144.88 566.738 1113.91 576.019 1079.05 574.911C1047.2 573.899 1020.95 565.212 998.316 549.14C975.686 533.067 962.536 513.805 955.196 489.693H989.073C994.257 506.043 1005.86 520.104 1023.86 531.885C1041.87 543.664 1061.55 549.554 1082.91 549.554C1108.55 549.277 1130.75 541.173 1149.53 525.235C1163.99 512.952 1172.88 498.817 1176.19 482.832C1176.71 470.662 1176.97 396.733 1176.97 393.051V370.603C1151.34 396.947 1119.29 410.801 1080.83 412.173C1043.5 413.277 1011.32 401.587 984.25 377.119L1007.88 354.427C1008 354.531 1008.11 354.641 1008.23 354.748C1027.85 372.524 1051.45 381.411 1079.05 381.411C1106.02 381.411 1128.94 372.524 1147.78 354.748C1166.63 336.975 1176.12 314.777 1176.97 290.586C1177.89 264.473 1167.6 241.164 1147.77 222.257C1126.87 202.326 1102.8 193.648 1073.99 194.758C1047.01 195.875 1024.17 205.806 1005.47 224.551C988.626 241.44 979.613 259.573 978.086 282.834C977.928 285.251 977.863 287.691 977.892 290.167C977.935 292.062 978.036 293.933 978.194 295.787C977.892 314.943 971.756 334.117 961.425 350.722C955.773 359.795 948.722 368.367 940.237 376.42C914.852 400.532 883.967 413.147 847.574 414.252C809.963 415.363 777.239 403.444 749.411 378.502C721.579 353.557 708.128 324.043 709.044 289.953V25H743.909V208.06C769.547 181.182 801.593 167.181 840.048 166.07C877.587 164.691 907.725 174.573 937.339 201.409C937.706 201.742 938.067 202.082 938.435 202.422L914.095 224.479C913.814 224.224 913.54 223.963 913.259 223.708C893.751 205.793 870.017 196.836 842.066 196.836C815.326 196.836 790.306 208.06 773.396 223.499C756.486 238.937 744.526 262.665 743.909 287.66C742.989 314.052 752.817 336.898 773.396 356.204C793.987 375.506 818.563 384.6 847.134 383.489C874.17 382.378 897.052 372.517 915.797 353.908C932.71 337.109 941.866 317.597 943.265 295.369C943.113 292.825 943.027 290.261 943.027 287.668C943.027 285.913 943.07 284.173 943.142 282.443C943.964 262.404 949.508 244.073 959.789 227.465C965.405 218.39 972.427 209.818 980.869 201.762C1006.1 177.693 1036.91 165.103 1073.31 163.992C1110.92 163.163 1143.56 175.151 1171.24 199.952C1198.92 224.76 1212.45 254.206 1211.84 288.29V477.487C1211.84 478.183 1211.83 478.872 1211.82 479.559Z" fill="#0E1117"/>
</svg>
