<svg width="1924" height="564" viewBox="0 0 1924 564" fill="none" xmlns="http://www.w3.org/2000/svg">
<rect x="1" y="1" width="1922" height="562" rx="7" fill="white" stroke="#D0D7DE" stroke-width="2"/>
<rect x="682" y="2" width="560" height="560" rx="30" fill="white"/>
<path d="M1150.61 165.125L1167.23 165.126L1181.01 165.126V271.688H1150.61V165.125Z" fill="#0D1117"/>
<path d="M741.062 275.125H771.462V385.125H741.062V275.125Z" fill="#0D1117"/>
<path d="M1181.03 439.114C1181.03 460.75 1167.97 482.302 1146.14 498.182C1122.45 515.396 1095.36 523.517 1064.86 522.547C1036.99 521.661 1014.02 514.06 994.214 499.997C974.412 485.934 962.906 469.079 956.484 447.982H986.127C990.662 462.288 1000.82 474.591 1016.56 484.9C1032.32 495.206 1049.54 500.36 1068.23 500.36C1090.67 500.117 1110.1 493.027 1126.52 479.081C1139.18 468.333 1146.96 455.965 1149.86 441.978C1150.3 431.329 1150.54 366.641 1150.54 363.42V343.778C1128.11 366.829 1100.07 378.951 1066.41 380.151C1033.75 381.118 1005.59 370.888 981.907 349.48L1002.58 329.624C1002.69 329.714 1002.79 329.811 1002.89 329.905C1020.05 345.458 1040.71 353.234 1064.85 353.234C1088.45 353.234 1108.51 345.458 1125 329.905C1141.49 314.354 1149.8 294.93 1150.54 273.763C1151.34 250.914 1142.34 230.518 1124.99 213.975C1106.7 196.535 1085.64 188.942 1060.43 189.913C1036.82 190.891 1016.84 199.581 1000.48 215.982C985.736 230.76 977.849 246.626 976.513 266.98C976.374 269.095 976.317 271.23 976.343 273.396C976.381 275.054 976.469 276.692 976.608 278.314C976.343 295.075 970.974 311.852 961.935 326.382C956.989 334.321 950.82 341.821 943.395 348.868C921.183 369.966 894.159 381.003 862.315 381.97C829.405 382.943 800.772 372.513 776.423 350.689C752.069 328.862 740.3 303.037 741.101 273.209V41.375H771.607V201.553C794.041 178.034 822.081 165.783 855.729 164.811C888.576 163.605 914.947 172.251 940.859 195.733C941.181 196.025 941.496 196.322 941.818 196.619L920.521 215.919C920.275 215.696 920.035 215.467 919.789 215.244C902.719 199.569 881.952 191.731 857.495 191.731C834.098 191.731 812.206 201.553 797.409 215.061C782.613 228.57 772.147 249.332 771.607 271.203C770.803 294.295 779.403 314.286 797.409 331.178C815.426 348.068 836.931 356.025 861.93 355.053C885.586 354.08 905.608 345.453 922.01 329.17C936.809 314.471 944.82 297.397 946.044 277.947C945.912 275.722 945.836 273.479 945.836 271.209C945.836 269.674 945.874 268.151 945.937 266.637C946.656 249.104 951.507 233.064 960.503 218.532C965.417 210.591 971.561 203.091 978.948 196.042C1001.03 174.981 1027.98 163.965 1059.83 162.993C1092.74 162.267 1121.3 172.757 1145.52 194.458C1169.74 216.165 1181.58 241.93 1181.05 271.753V437.301C1181.05 437.91 1181.04 438.513 1181.03 439.114Z" fill="#0D1117"/>
</svg>
