<svg width="1924" height="564" viewBox="0 0 1924 564" fill="none" xmlns="http://www.w3.org/2000/svg">
<rect x="1" y="1" width="1922" height="562" rx="7" fill="white" stroke="#D0D7DE" stroke-width="2"/>
<rect x="692" y="12" width="540" height="540" rx="30" fill="white"/>
<path d="M1143.88 169.299L1159.9 169.3L1173.19 169.3V272.057H1143.88V169.299Z" fill="#0D1117"/>
<path d="M748.953 275.371H778.267V381.442H748.953V275.371Z" fill="#0D1117"/>
<path d="M1173.2 433.502C1173.2 454.366 1160.62 475.148 1139.57 490.461C1116.72 507.06 1090.6 514.891 1061.19 513.956C1034.31 513.102 1012.16 505.772 993.063 492.212C973.969 478.651 962.874 462.398 956.681 442.054H985.265C989.639 455.849 999.432 467.713 1014.62 477.653C1029.81 487.591 1046.42 492.562 1064.44 492.562C1086.07 492.327 1104.81 485.49 1120.65 472.042C1132.85 461.678 1140.35 449.752 1143.15 436.264C1143.58 425.996 1143.8 363.618 1143.8 360.512V341.571C1122.17 363.799 1095.14 375.488 1062.68 376.646C1031.19 377.578 1004.04 367.714 981.196 347.07L1001.14 327.923C1001.23 328.01 1001.33 328.104 1001.43 328.194C1017.98 343.192 1037.89 350.69 1061.18 350.69C1083.94 350.69 1103.27 343.192 1119.18 328.194C1135.08 313.198 1143.09 294.468 1143.8 274.057C1144.58 252.024 1135.9 232.357 1119.17 216.405C1101.53 199.588 1081.22 192.265 1056.91 193.202C1034.15 194.145 1014.88 202.524 999.104 218.34C984.888 232.59 977.283 247.89 975.995 267.516C975.861 269.555 975.806 271.614 975.83 273.704C975.867 275.302 975.952 276.881 976.086 278.446C975.83 294.608 970.654 310.786 961.937 324.797C957.168 332.452 951.219 339.685 944.059 346.48C922.641 366.824 896.582 377.468 865.875 378.4C834.14 379.337 806.53 369.281 783.05 348.236C759.566 327.188 748.218 302.286 748.99 273.523V49.9688H778.407V204.426C800.039 181.747 827.078 169.934 859.525 168.997C891.198 167.833 916.628 176.171 941.614 198.814C941.924 199.095 942.228 199.382 942.538 199.669L922.002 218.279C921.765 218.064 921.534 217.844 921.297 217.629C904.836 202.513 884.811 194.955 861.228 194.955C838.666 194.955 817.555 204.426 803.288 217.452C789.02 230.478 778.928 250.498 778.407 271.589C777.632 293.856 785.924 313.133 803.288 329.422C820.661 345.708 841.397 353.381 865.504 352.444C888.315 351.506 907.622 343.186 923.438 327.485C937.709 313.311 945.434 296.847 946.614 278.092C946.486 275.946 946.413 273.783 946.413 271.595C946.413 270.114 946.45 268.646 946.511 267.186C947.204 250.278 951.882 234.811 960.556 220.798C965.295 213.141 971.22 205.909 978.343 199.112C999.633 178.803 1025.63 168.181 1056.34 167.243C1088.07 166.543 1115.61 176.659 1138.97 197.585C1162.32 218.516 1173.74 243.361 1173.22 272.119V431.754C1173.22 432.342 1173.22 432.924 1173.2 433.502Z" fill="#0D1117"/>
</svg>
